<svg width="180" height="33" viewBox="0 0 180 33" fill="none" xmlns="http://www.w3.org/2000/svg">
<path d="M69.91 32.61C68.65 32.61 67.49 32.34 66.43 31.8C65.39 31.26 64.18 30.48 62.8 29.46C61.92 28.8 61.2 28.29 60.64 27.93C60.1 27.59 59.54 27.32 58.96 27.12C58.12 27.26 57.37 27.33 56.71 27.33C53.35 27.33 50.86 26.32 49.24 24.3C47.62 22.26 46.81 19.46 46.81 15.9C46.81 13.6 47.23 11.59 48.07 9.87C48.93 8.13 50.13 6.79 51.67 5.85C53.23 4.91 55.04 4.44 57.1 4.44C60.54 4.44 63.07 5.4 64.69 7.32C66.33 9.22 67.15 11.94 67.15 15.48C67.15 17.92 66.68 20.06 65.74 21.9C64.8 23.74 63.49 25.13 61.81 26.07C62.49 26.19 63.18 26.4 63.88 26.7C64.58 26.98 65.43 27.36 66.43 27.84C67.69 28.44 68.7 28.88 69.46 29.16C70.22 29.44 70.96 29.58 71.68 29.58C72.44 29.58 72.97 29.53 73.27 29.43L73.72 30.84C73.2 31.48 72.65 31.93 72.07 32.19C71.51 32.47 70.79 32.61 69.91 32.61ZM56.95 25.32C58.37 25.32 59.48 24.48 60.28 22.8C61.08 21.12 61.48 18.69 61.48 15.51C61.48 12.31 61.1 10 60.34 8.58C59.58 7.14 58.47 6.42 57.01 6.42C55.57 6.42 54.45 7.21 53.65 8.79C52.87 10.37 52.48 12.73 52.48 15.87C52.48 19.07 52.86 21.45 53.62 23.01C54.4 24.55 55.51 25.32 56.95 25.32ZM82.7627 27.3C82.0427 27.3 81.5227 27.15 81.2027 26.85C80.8827 26.53 80.7227 26.07 80.7227 25.47V24.81C80.2427 25.47 79.5227 26.06 78.5627 26.58C77.6027 27.08 76.6327 27.33 75.6527 27.33C73.6927 27.33 72.2927 26.85 71.4527 25.89C70.6327 24.91 70.2227 23.28 70.2227 21V12.66L68.8127 12.27V10.35L74.4527 9.96H74.4827L75.1427 10.38V21.12C75.1427 22.42 75.3027 23.33 75.6227 23.85C75.9427 24.35 76.5127 24.6 77.3327 24.6C78.4527 24.6 79.3927 24.22 80.1527 23.46V12.66L78.2927 12.21V10.35L84.2327 9.96H84.3227L85.0427 10.38V24.93H86.6327V26.85C85.9527 26.99 85.3227 27.1 84.7427 27.18C84.1827 27.26 83.5227 27.3 82.7627 27.3ZM92.1993 7.74C91.4193 7.74 90.7893 7.51 90.3093 7.05C89.8293 6.59 89.5893 6 89.5893 5.28C89.5893 4.44 89.8493 3.75 90.3693 3.21C90.9093 2.67 91.6293 2.4 92.5293 2.4C93.4293 2.4 94.1193 2.63 94.5993 3.09C95.0793 3.55 95.3193 4.14 95.3193 4.86C95.3193 5.72 95.0493 6.42 94.5093 6.96C93.9693 7.48 93.2093 7.74 92.2293 7.74H92.1993ZM90.3693 13.47L88.3593 12.9V10.65L94.3593 9.93H94.4193L95.3493 10.56V24.75L97.1493 25.02V27H88.5093V25.02L90.3693 24.75V13.47ZM98.9027 18.78C98.9027 17 99.2627 15.44 99.9827 14.1C100.703 12.76 101.713 11.73 103.013 11.01C104.313 10.27 105.813 9.9 107.513 9.9C108.353 9.9 109.073 9.96 109.673 10.08C110.293 10.18 110.923 10.33 111.563 10.53C112.143 10.69 112.503 10.78 112.643 10.8L112.433 16.23H109.403L108.623 12.78C108.563 12.52 108.393 12.34 108.113 12.24C107.853 12.12 107.533 12.06 107.153 12.06C106.213 12.06 105.473 12.52 104.933 13.44C104.413 14.36 104.153 15.89 104.153 18.03C104.153 20.07 104.483 21.64 105.143 22.74C105.823 23.82 106.733 24.36 107.873 24.36C109.353 24.36 110.713 23.98 111.953 23.22L112.763 24.99C112.283 25.53 111.493 26.06 110.393 26.58C109.293 27.08 108.073 27.33 106.733 27.33C104.113 27.33 102.153 26.56 100.853 25.02C99.5527 23.46 98.9027 21.38 98.9027 18.78ZM114.516 22.2C114.516 20.44 115.406 19.09 117.186 18.15C118.986 17.21 121.346 16.73 124.266 16.71V16.11C124.266 15.39 124.186 14.82 124.026 14.4C123.866 13.98 123.576 13.67 123.156 13.47C122.736 13.25 122.116 13.14 121.296 13.14C120.316 13.14 119.436 13.26 118.656 13.5C117.896 13.72 117.096 14.02 116.256 14.4L115.236 12.24C115.556 11.98 116.076 11.67 116.796 11.31C117.516 10.93 118.376 10.61 119.376 10.35C120.396 10.07 121.456 9.93 122.556 9.93C124.156 9.93 125.406 10.14 126.306 10.56C127.226 10.98 127.876 11.63 128.256 12.51C128.656 13.39 128.856 14.59 128.856 16.11V25.02H130.416V26.91C129.956 27.01 129.316 27.11 128.496 27.21C127.676 27.31 126.976 27.36 126.396 27.36C125.636 27.36 125.126 27.25 124.866 27.03C124.626 26.81 124.506 26.37 124.506 25.71V25.02C124.006 25.62 123.336 26.16 122.496 26.64C121.656 27.1 120.686 27.33 119.586 27.33C118.646 27.33 117.786 27.13 117.006 26.73C116.246 26.31 115.636 25.72 115.176 24.96C114.736 24.18 114.516 23.26 114.516 22.2ZM121.926 24.57C122.286 24.57 122.686 24.47 123.126 24.27C123.566 24.05 123.946 23.79 124.266 23.49V18.72C122.706 18.72 121.546 19 120.786 19.56C120.046 20.12 119.676 20.84 119.676 21.72C119.676 22.62 119.876 23.32 120.276 23.82C120.676 24.32 121.226 24.57 121.926 24.57ZM132.075 25.02L133.905 24.75V13.47L132.135 12.93V10.59L137.115 9.93H137.205L138.045 10.56V11.28L137.955 13.77H138.045C138.185 13.31 138.505 12.78 139.005 12.18C139.505 11.56 140.135 11.03 140.895 10.59C141.675 10.13 142.515 9.9 143.415 9.9C143.935 9.9 144.335 9.97 144.615 10.11V15.33C144.295 15.09 143.945 14.9 143.565 14.76C143.205 14.62 142.735 14.55 142.155 14.55C141.435 14.55 140.785 14.65 140.205 14.85C139.625 15.03 139.165 15.24 138.825 15.48V24.75L142.125 25.05V27H132.075V25.02ZM152.669 27.33C150.749 27.33 149.189 26.64 147.989 25.26C146.789 23.88 146.189 21.81 146.189 19.05C146.189 17.39 146.529 15.87 147.209 14.49C147.909 13.09 148.929 11.98 150.269 11.16C151.629 10.32 153.269 9.9 155.189 9.9C155.769 9.9 156.369 9.97 156.989 10.11V5.34L154.109 4.92V3L160.739 2.4H160.889L161.789 3.12V24.99H163.349V26.91C161.809 27.21 160.529 27.36 159.509 27.36C158.809 27.36 158.299 27.24 157.979 27C157.679 26.78 157.529 26.34 157.529 25.68V24.93C157.049 25.63 156.359 26.21 155.459 26.67C154.559 27.11 153.629 27.33 152.669 27.33ZM154.469 24.63C155.029 24.63 155.519 24.52 155.939 24.3C156.379 24.06 156.729 23.78 156.989 23.46V12.6C156.849 12.42 156.589 12.27 156.209 12.15C155.849 12.03 155.459 11.97 155.039 11.97C153.919 11.97 153.029 12.51 152.369 13.59C151.709 14.65 151.379 16.39 151.379 18.81C151.379 20.79 151.659 22.26 152.219 23.22C152.779 24.16 153.529 24.63 154.469 24.63ZM169.076 24.51C169.216 24.73 169.536 24.93 170.036 25.11C170.556 25.29 171.076 25.38 171.596 25.38C172.416 25.38 173.036 25.21 173.456 24.87C173.896 24.51 174.116 24.05 174.116 23.49C174.116 22.89 173.836 22.4 173.276 22.02C172.716 21.62 171.796 21.14 170.516 20.58L169.376 20.07C168.076 19.49 167.096 18.79 166.436 17.97C165.796 17.13 165.476 16.07 165.476 14.79C165.476 13.87 165.746 13.05 166.286 12.33C166.826 11.59 167.606 11.01 168.626 10.59C169.646 10.17 170.846 9.96 172.226 9.96C173.186 9.96 174.016 10.02 174.716 10.14C175.416 10.26 176.126 10.41 176.846 10.59C177.326 10.73 177.686 10.81 177.926 10.83V14.91H175.256L174.476 12.6C174.376 12.42 174.136 12.26 173.756 12.12C173.376 11.96 172.946 11.88 172.466 11.88C171.706 11.88 171.106 12.05 170.666 12.39C170.226 12.71 170.006 13.15 170.006 13.71C170.006 14.35 170.256 14.86 170.756 15.24C171.256 15.6 172.056 16.03 173.156 16.53L173.786 16.8C175.406 17.48 176.676 18.22 177.596 19.02C178.516 19.8 178.976 20.88 178.976 22.26C178.976 23.74 178.386 24.96 177.206 25.92C176.026 26.86 174.286 27.33 171.986 27.33C170.926 27.33 169.986 27.24 169.166 27.06C168.346 26.9 167.446 26.68 166.466 26.4L165.476 26.13V22.14H168.326L169.076 24.51Z" fill="#CF1F83"/>
<path d="M32.7273 7.11902H18.1818V17.7976H32.7273V7.11902ZM36.3636 0H3.63636C1.63636 0 0 1.60178 0 3.55951V28.4761C0 30.4338 1.63636 32 3.63636 32H36.3636C38.3636 32 40 30.4338 40 28.4761V3.55951C40 1.60178 38.3636 0 36.3636 0ZM36.3636 28.4939H3.63636V3.52392H36.3636V28.4939V28.4939Z" fill="#CF1F83"/>
</svg>
