<svg width="716" height="472" viewBox="0 0 716 472" fill="none" xmlns="http://www.w3.org/2000/svg">
<g opacity="0.4" clip-path="url(#clip0)">
<path d="M708.981 471.524C726.33 406.595 710.559 338.307 672.259 288.998L343.461 375.401L655.871 270.172C500.664 117.837 251.209 261.118 302.009 470.85L708.981 471.524Z" fill="#E6E6E6"/>
<path d="M144.234 242.613C195.038 242.613 236.223 201.397 236.223 150.554C236.223 99.7118 195.038 58.4957 144.234 58.4957C93.4297 58.4957 52.2446 99.7118 52.2446 150.554C52.2446 201.397 93.4297 242.613 144.234 242.613Z" fill="#E6E6E6"/>
<path d="M266.886 184.276H199.831C195.255 157.802 195.255 130.739 199.831 104.265H266.886C259.332 130.4 259.332 158.142 266.886 184.276Z" fill="#FF6584"/>
<path d="M252.008 125.937H211.204C210.499 125.937 209.928 125.019 209.928 123.884C209.928 122.75 210.499 121.832 211.204 121.832H252.008C252.712 121.832 253.283 122.75 253.283 123.884C253.283 125.019 252.712 125.937 252.008 125.937Z" fill="white"/>
<path d="M252.008 144.977H211.204C210.499 144.977 209.928 144.059 209.928 142.924C209.928 141.79 210.499 140.872 211.204 140.872H252.008C252.712 140.872 253.283 141.79 253.283 142.924C253.283 144.059 252.712 144.977 252.008 144.977Z" fill="white"/>
<path d="M58.5344 103.079H144.923C150.818 68.9729 150.818 34.1065 144.923 0H58.5344C68.2668 33.6696 68.2668 69.4098 58.5344 103.079Z" fill="#CF1F83"/>
<path d="M131.293 30.0323H78.7236C77.8164 30.0323 77.0809 28.8497 77.0809 27.3882C77.0809 25.9267 77.8164 24.744 78.7236 24.744H131.293C132.2 24.744 132.935 25.9267 132.935 27.3882C132.935 28.8497 132.2 30.0323 131.293 30.0323Z" fill="white"/>
<path d="M131.293 54.5621H78.7236C77.8164 54.5621 77.0809 53.3795 77.0809 51.918C77.0809 50.4565 77.8164 49.2738 78.7236 49.2738H131.293C132.2 49.2738 132.935 50.4564 132.935 51.918C132.935 53.3795 132.2 54.5621 131.293 54.5621Z" fill="white"/>
<path d="M131.293 79.0919H78.7236C77.8164 79.0919 77.0809 77.9093 77.0809 76.4478C77.0809 74.9862 77.8164 73.8036 78.7236 73.8036H131.293C132.2 73.8036 132.935 74.9862 132.935 76.4478C132.935 77.9093 132.2 79.0919 131.293 79.0919Z" fill="white"/>
<path d="M1.46698 263.33H87.8555C93.7509 229.223 93.7509 194.357 87.8555 160.25H1.46698C11.1993 193.92 11.1993 229.66 1.46698 263.33Z" fill="#CF1F83"/>
<path d="M74.2252 190.283H21.6562C20.749 190.283 20.0134 189.1 20.0134 187.638C20.0134 186.177 20.749 184.994 21.6562 184.994H74.2252C75.1324 184.994 75.868 186.177 75.868 187.638C75.868 189.1 75.1324 190.283 74.2252 190.283Z" fill="white"/>
<path d="M74.2252 214.812H21.6562C20.749 214.812 20.0134 213.63 20.0134 212.168C20.0134 210.707 20.749 209.524 21.6562 209.524H74.2252C75.1324 209.524 75.868 210.707 75.868 212.168C75.868 213.63 75.1324 214.812 74.2252 214.812Z" fill="white"/>
<path d="M454.426 442.668L466.883 421.741L449.28 414.695L447.667 416.757C443.636 421.912 440.037 432.804 435.141 437.039" fill="#FFB8B8"/>
<path d="M460.395 445.971L459.787 464.145C459.73 465.86 459.004 467.485 457.766 468.673C456.527 469.86 454.873 470.515 453.158 470.498L439.422 470.362H423.932C423.932 470.362 395.063 469.657 393.655 458.383C393.185 454.624 396.393 452.119 400.879 450.449C411.655 446.469 421.742 440.823 430.771 433.717C431.842 432.86 433.121 432.303 434.477 432.101C435.833 431.899 437.219 432.061 438.492 432.569L456.373 439.787C457.596 440.281 458.638 441.139 459.358 442.245C460.077 443.351 460.439 444.652 460.395 445.971Z" fill="#2F2E41"/>
<path d="M428.143 442.403C428.921 442.403 429.551 441.772 429.551 440.994C429.551 440.216 428.921 439.585 428.143 439.585C427.365 439.585 426.735 440.216 426.735 440.994C426.735 441.772 427.365 442.403 428.143 442.403Z" fill="white"/>
<path d="M432.667 437.489C433.444 437.489 434.075 436.858 434.075 436.08C434.075 435.301 433.444 434.67 432.667 434.67C431.889 434.67 431.258 435.301 431.258 436.08C431.258 436.858 431.889 437.489 432.667 437.489Z" fill="white"/>
<path d="M593.617 415.091L587.64 391.479L570.214 398.953L570.53 401.553C571.322 408.051 576.473 418.299 576.003 424.758" fill="#FFB8B8"/>
<path d="M600.147 413.175L612.302 426.182C613.549 427.516 614.225 429.286 614.185 431.113C614.146 432.939 613.394 434.678 612.09 435.957L602.576 445.291L591.623 456.253C591.623 456.253 570.712 476.183 561.75 469.207C558.762 466.882 559.26 462.841 561.252 458.486C566.091 447.979 569.244 436.774 570.592 425.284C570.735 423.986 571.22 422.749 571.997 421.7C572.774 420.65 573.815 419.827 575.014 419.312L592.994 411.661C594.197 411.149 595.529 411.02 596.809 411.291C598.088 411.562 599.253 412.219 600.147 413.175Z" fill="#2F2E41"/>
<path d="M573.85 433.916C574.628 433.916 575.258 433.285 575.258 432.507C575.258 431.728 574.628 431.097 573.85 431.097C573.072 431.097 572.442 431.728 572.442 432.507C572.442 433.285 573.072 433.916 573.85 433.916Z" fill="white"/>
<path d="M573.577 427.24C574.354 427.24 574.985 426.609 574.985 425.831C574.985 425.052 574.354 424.421 573.577 424.421C572.799 424.421 572.168 425.052 572.168 425.831C572.168 426.609 572.799 427.24 573.577 427.24Z" fill="white"/>
<path d="M488.006 118.744L495.751 140.588L516.171 128.609C516.171 128.609 505.609 115.925 506.313 108.879L488.006 118.744Z" fill="#FFB8B8"/>
<path d="M490.47 121.915C501.359 121.915 510.186 113.081 510.186 102.185C510.186 91.288 501.359 82.4546 490.47 82.4546C479.582 82.4546 470.755 91.288 470.755 102.185C470.755 113.081 479.582 121.915 490.47 121.915Z" fill="#FFB8B8"/>
<path d="M518.987 125.79L514.857 126.946C514.857 126.946 506.313 126.495 502.088 132.837C497.864 139.179 494.738 137.73 494.738 137.73L477.444 163.841C477.444 163.841 471.812 174.411 473.924 186.39C476.036 198.369 483.077 215.28 483.077 215.28C483.077 215.28 528.141 219.508 529.549 217.394C530.957 215.28 529.549 201.187 529.549 201.187L535.182 138.474C535.182 138.474 528.845 127.904 525.324 127.904C523.052 127.828 520.851 127.093 518.987 125.79Z" fill="#CF1F83"/>
<path d="M533.069 213.166C533.069 213.166 521.099 212.462 516.171 213.871C511.242 215.28 481.669 213.871 481.669 213.871L473.22 266.719L445.759 416.104L475.332 427.378L510.538 343.525L514.762 355.504L568.275 413.99L596.44 401.306L549.968 323.795L535.182 269.538C535.182 269.538 544.335 238.533 531.661 219.508L533.069 213.166Z" fill="#2F2E41"/>
<path opacity="0.2" d="M485.15 268.601L483.821 269.065L509.873 343.758L511.203 343.293L485.15 268.601Z" fill="black"/>
<path d="M526.998 71.0428C525.876 66.6024 522.127 63.7212 518.624 64.6075C518.584 64.6175 518.548 64.6339 518.508 64.6448C518.905 64.4241 519.328 64.2558 519.767 64.1441C523.27 63.2577 527.019 66.139 528.141 70.5794C529.25 74.9694 527.373 79.2341 523.945 80.1869C526.631 78.6971 527.976 74.9172 526.998 71.0428Z" fill="#2F2E41"/>
<path d="M526.171 77.9527C529.706 75.0429 530.71 70.4204 528.415 67.628C528.389 67.5963 528.358 67.5701 528.332 67.5392C528.7 67.8037 529.033 68.1149 529.321 68.4651C531.617 71.2575 530.612 75.88 527.078 78.7898C523.584 81.6666 518.929 81.7872 516.605 79.0911C519.097 80.8863 523.088 80.4915 526.171 77.9527Z" fill="#2F2E41"/>
<path d="M528.229 79.3214C530.151 76.2591 528.566 71.8022 524.69 69.3667C520.814 66.9312 516.115 67.4393 514.193 70.5016C512.272 73.5638 513.857 78.0206 517.732 80.4562C521.608 82.8917 526.308 82.3836 528.229 79.3214Z" fill="#2F2E41"/>
<path d="M514.403 77.0436C516.259 77.044 518.075 77.5779 519.637 78.5819C521.009 79.43 522.152 80.6017 522.966 81.9945C521.111 81.994 519.294 81.4601 517.733 80.4561C516.361 79.608 515.217 78.4363 514.403 77.0436Z" fill="#CF1F83"/>
<path d="M487.656 73.999C484.666 73.999 483.725 76.6554 484.294 79.4418C487.54 95.0417 486.263 111.245 480.613 126.143H498.702L502.088 118.122L503.4 126.143H527.084V118.054C535.055 85.2882 518.152 69.2982 487.656 73.999Z" fill="#2F2E41"/>
<path d="M484.69 74.7035H482.873C481.097 74.7035 479.338 75.0536 477.697 75.7338C476.056 76.414 474.565 77.4111 473.309 78.668C472.053 79.9249 471.056 81.4171 470.377 83.0593C469.697 84.7016 469.347 86.4617 469.347 88.2393V93.0243L481.149 91.5839L482.021 88.0918L482.842 91.3773L498.216 89.501V88.2393C498.216 86.4617 497.866 84.7016 497.186 83.0593C496.506 81.4171 495.51 79.9249 494.254 78.668C492.998 77.4111 491.507 76.414 489.866 75.7338C488.225 75.0536 486.466 74.7035 484.69 74.7035Z" fill="#2F2E41"/>
<path opacity="0.2" d="M514.493 161.927L507.453 214.071L500.067 214.456L514.493 161.927Z" fill="black"/>
<path d="M507.213 224.707L493.223 266.709C493.223 266.709 464.078 299.376 480.399 299.376C496.721 299.376 504.882 270.209 504.882 270.209L524.701 228.208L507.213 224.707Z" fill="#FFB8B8"/>
<path d="M521.786 129.621C521.786 129.621 531.268 125.513 537.025 135.855C542.782 146.197 540.439 185.623 539.273 191.456C538.107 197.29 529.947 233.458 529.947 233.458L501.967 227.624C501.967 227.624 499.635 211.29 506.63 212.457L521.786 129.621Z" fill="#CF1F83"/>
<path d="M713.551 470.198H0V472H713.551V470.198Z" fill="#3F3D56"/>
</g>
<defs>
<clipPath id="clip0">
<rect width="716" height="472" fill="white"/>
</clipPath>
</defs>
</svg>
